<svg xmlns="http://www.w3.org/2000/svg" xmlns:xlink="http://www.w3.org/1999/xlink" width="52.253" height="52.253" viewBox="0 0 52.253 52.253">
  <defs>
    <filter id="Path_299" x="0" y="0" width="52.253" height="52.253" filterUnits="userSpaceOnUse">
      <feOffset dy="2" input="SourceAlpha"/>
      <feGaussianBlur stdDeviation="2.5" result="blur"/>
      <feFlood flood-opacity="0.141"/>
      <feComposite operator="in" in2="blur"/>
      <feComposite in="SourceGraphic"/>
    </filter>
  </defs>
  <g id="iconHelp" transform="translate(-105.5 828.5)">
    <g id="Group_104" data-name="Group 104" transform="translate(114 -822)">
      <g id="Group_103" data-name="Group 103">
        <path id="Path_297" data-name="Path 297" d="M217.419,85.333a4.086,4.086,0,1,0,4.086,4.086A4.09,4.09,0,0,0,217.419,85.333Zm0,6.129a2.043,2.043,0,1,1,2.043-2.043A2.046,2.046,0,0,1,217.419,91.462Z" transform="translate(-200.113 -80.754)" fill="#5d6472" stroke="#5d6472" stroke-width="0.5"/>
        <path id="Path_298" data-name="Path 298" d="M198.61,192H191.7c-.406,0-.927.328-.927.734v2.938c0,.406.521.735.927.735h1v11.016a.734.734,0,0,0,.734.734h5.17a.734.734,0,0,0,.734-.734V192.734A.734.734,0,0,0,198.61,192Zm-.734,14.689h-3.7V195.672a.734.734,0,0,0-.734-.734H192.7v-1.469h5.17v13.22Z" transform="translate(-178.78 -177.78)" fill="#5d6472" stroke="#5d6472" stroke-width="1"/>
        <g transform="matrix(1, 0, 0, 1, -8.5, -6.5)" filter="url(#Path_299)">
          <path id="Path_299-2" data-name="Path 299" d="M17.626,0A17.626,17.626,0,1,0,35.253,17.626,17.647,17.647,0,0,0,17.626,0Zm0,33.784A16.157,16.157,0,1,1,33.784,17.626,16.176,16.176,0,0,1,17.626,33.784Z" transform="translate(8.5 6.5)" fill="#5d6472" stroke="#5d6472" stroke-width="2"/>
        </g>
      </g>
    </g>
  </g>
</svg>
